<svg width="47" height="47" viewBox="0 0 47 47" fill="none" xmlns="http://www.w3.org/2000/svg">
<g id="7123025_logo_google_g_icon 1">
<g id="Group">
<path id="Vector" d="M37.6 23.8447C37.6 22.8733 37.506 21.8707 37.3493 20.9307H23.782V26.4767H31.5526C31.2393 28.2627 30.2053 29.8293 28.67 30.832L33.3073 34.4353C36.0333 31.8973 37.6 28.2 37.6 23.8447Z" fill="#4280EF"/>
<path id="Vector_2" d="M23.782 37.882C27.6673 37.882 30.926 36.5973 33.3073 34.404L28.67 30.832C27.3853 31.7093 25.7246 32.2107 23.782 32.2107C20.022 32.2107 16.8573 29.6727 15.698 26.2887L10.9353 29.9547C13.3793 34.8113 18.33 37.882 23.782 37.882Z" fill="#34A353"/>
<path id="Vector_3" d="M15.6979 26.2573C15.1025 24.4713 15.1025 22.5287 15.6979 20.7427L10.9352 17.0453C8.89855 21.1187 8.89855 25.9127 10.9352 29.9547L15.6979 26.2573Z" fill="#F6B704"/>
<path id="Vector_4" d="M23.782 14.8207C25.8186 14.7893 27.824 15.5727 29.2966 16.9827L33.4013 12.8467C30.8006 10.4027 27.354 9.08667 23.782 9.118C18.33 9.118 13.3793 12.1887 10.9353 17.0453L15.698 20.7427C16.8573 17.3273 20.022 14.8207 23.782 14.8207Z" fill="#E54335"/>
</g>
</g>
</svg>
